<?xml version="1.0" encoding="UTF-8"?>
<!DOCTYPE svg PUBLIC "-//W3C//DTD SVG 1.1//EN" "http://www.w3.org/Graphics/SVG/1.1/DTD/svg11.dtd">
<svg xmlns="http://www.w3.org/2000/svg" version="1.1" width="3264px" height="3264px" style="shape-rendering:geometricPrecision; text-rendering:geometricPrecision; image-rendering:optimizeQuality; fill-rule:evenodd; clip-rule:evenodd" xmlns:xlink="http://www.w3.org/1999/xlink">
<g><path style="opacity:0.953" fill="#fefefe" d="M 1871.5,566.5 C 1875.95,565.617 1879.45,566.95 1882,570.5C 1886.17,577.516 1890.84,584.183 1896,590.5C 1896.49,592.134 1896.66,593.801 1896.5,595.5C 1901.34,597.498 1904.01,601.164 1904.5,606.5C 1905.5,606.5 1906.5,606.5 1907.5,606.5C 1911.24,613.645 1915.74,620.312 1921,626.5C 1921.48,627.448 1921.65,628.448 1921.5,629.5C 1922.5,629.5 1923.5,629.5 1924.5,629.5C 1924.5,631.167 1924.5,632.833 1924.5,634.5C 1925.5,634.5 1926.5,634.5 1927.5,634.5C 1930.56,639.603 1933.89,644.603 1937.5,649.5C 1938.45,651.045 1938.79,652.712 1938.5,654.5C 1939.5,654.5 1940.5,654.5 1941.5,654.5C 1945.36,661.481 1949.86,668.148 1955,674.5C 1955.48,675.448 1955.65,676.448 1955.5,677.5C 1956.5,677.5 1957.5,677.5 1958.5,677.5C 1958.83,681.35 1960.67,684.35 1964,686.5C 1964.67,689.833 1964.67,693.167 1964,696.5C 1955.86,709.961 1947.36,723.127 1938.5,736C 1935.17,740.833 1932.5,746 1930.5,751.5C 1929.5,751.5 1928.5,751.5 1927.5,751.5C 1927.66,753.199 1927.49,754.866 1927,756.5C 1919.93,767.193 1912.76,777.86 1905.5,788.5C 1901.47,795.903 1897.47,803.236 1893.5,810.5C 1892.5,810.5 1891.5,810.5 1890.5,810.5C 1890.66,812.199 1890.49,813.866 1890,815.5C 1883.26,825.728 1876.76,836.062 1870.5,846.5C 1866.64,850.582 1863.81,855.248 1862,860.5C 1856.7,868.42 1851.36,876.42 1846,884.5C 1845.52,885.448 1845.35,886.448 1845.5,887.5C 1844.5,887.5 1843.5,887.5 1842.5,887.5C 1842.5,889.167 1842.5,890.833 1842.5,892.5C 1841.5,892.5 1840.5,892.5 1839.5,892.5C 1839.66,894.199 1839.49,895.866 1839,897.5C 1836.21,899.802 1833.37,901.969 1830.5,904C 1819.5,909.034 1809.17,915.367 1799.5,923C 1797.87,923.494 1796.2,923.66 1794.5,923.5C 1794.5,924.5 1794.5,925.5 1794.5,926.5C 1778.6,934.54 1763.26,943.707 1748.5,954C 1745.43,956 1742.1,957.166 1738.5,957.5C 1738.5,958.5 1738.5,959.5 1738.5,960.5C 1736.64,960.461 1735.31,961.294 1734.5,963C 1732.87,963.494 1731.2,963.66 1729.5,963.5C 1729.5,964.5 1729.5,965.5 1729.5,966.5C 1722.65,968.517 1716.65,972.017 1711.5,977C 1708.34,978.01 1705.34,979.343 1702.5,981C 1698.09,985.056 1693.09,988.223 1687.5,990.5C 1673.71,999.432 1660.04,1008.26 1646.5,1017C 1643.51,1018.66 1640.34,1019.83 1637,1020.5C 1634.74,1020.56 1632.74,1019.89 1631,1018.5C 1628.27,1008.17 1624.27,998.503 1619,989.5C 1619.05,986.367 1618.05,983.7 1616,981.5C 1612.27,969.626 1608.1,957.96 1603.5,946.5C 1600.88,942.507 1598.71,938.173 1597,933.5C 1595.4,928.578 1593.9,923.578 1592.5,918.5C 1591.14,916.139 1589.64,913.806 1588,911.5C 1586,906.162 1584,900.829 1582,895.5C 1581.33,881.833 1581.33,868.167 1582,854.5C 1582.17,852.285 1582.84,850.285 1584,848.5C 1584.04,823.784 1584.71,799.117 1586,774.5C 1586.96,771.978 1588.46,769.811 1590.5,768C 1599.88,762.026 1608.88,755.526 1617.5,748.5C 1619.66,746.98 1622,745.98 1624.5,745.5C 1624.5,744.5 1624.5,743.5 1624.5,742.5C 1632.42,737.617 1640.42,732.617 1648.5,727.5C 1651.32,725.183 1653.98,722.683 1656.5,720C 1658.13,719.506 1659.8,719.34 1661.5,719.5C 1661.5,718.5 1661.5,717.5 1661.5,716.5C 1664.19,715.664 1666.52,714.164 1668.5,712C 1669.79,711.51 1671.13,711.343 1672.5,711.5C 1672.5,710.5 1672.5,709.5 1672.5,708.5C 1673.98,708.762 1675.31,708.429 1676.5,707.5C 1689.32,697.442 1702.32,687.775 1715.5,678.5C 1717.05,677.548 1718.71,677.215 1720.5,677.5C 1720.5,676.5 1720.5,675.5 1720.5,674.5C 1727.51,670.683 1734.18,666.183 1740.5,661C 1741.45,660.517 1742.45,660.351 1743.5,660.5C 1743.5,659.5 1743.5,658.5 1743.5,657.5C 1744.98,657.762 1746.31,657.429 1747.5,656.5C 1754.35,651.575 1761.01,646.408 1767.5,641C 1768.79,640.51 1770.13,640.343 1771.5,640.5C 1771.5,639.5 1771.5,638.5 1771.5,637.5C 1777.29,634.837 1782.62,631.337 1787.5,627C 1788.79,626.51 1790.13,626.343 1791.5,626.5C 1791.5,625.5 1791.5,624.5 1791.5,623.5C 1814.53,608.573 1836.86,592.74 1858.5,576C 1861.02,573.761 1864.02,572.594 1867.5,572.5C 1868.2,570.127 1869.54,568.127 1871.5,566.5 Z"/></g>
<g><path style="opacity:0.956" fill="#fefefe" d="M 1056.5,852.5 C 1180.83,852.333 1305.17,852.5 1429.5,853C 1431.17,854.506 1432.17,856.339 1432.5,858.5C 1434.43,858.729 1436.1,859.562 1437.5,861C 1439.67,863.167 1441.83,865.333 1444,867.5C 1445.44,868.9 1446.27,870.567 1446.5,872.5C 1447.5,872.5 1448.5,872.5 1449.5,872.5C 1449.5,873.5 1449.5,874.5 1449.5,875.5C 1451.43,875.729 1453.1,876.562 1454.5,878C 1456.67,880.167 1458.83,882.333 1461,884.5C 1462.44,885.9 1463.27,887.567 1463.5,889.5C 1464.5,889.5 1465.5,889.5 1466.5,889.5C 1466.5,890.5 1466.5,891.5 1466.5,892.5C 1468.43,892.729 1470.1,893.562 1471.5,895C 1473.67,897.167 1475.83,899.333 1478,901.5C 1479.44,902.9 1480.27,904.567 1480.5,906.5C 1481.5,906.5 1482.5,906.5 1483.5,906.5C 1483.5,907.5 1483.5,908.5 1483.5,909.5C 1485.43,909.729 1487.1,910.562 1488.5,912C 1490.67,914.167 1492.83,916.333 1495,918.5C 1496.44,919.9 1497.27,921.567 1497.5,923.5C 1499.43,923.729 1501.1,924.562 1502.5,926C 1505.33,929.5 1508.5,932.667 1512,935.5C 1513.44,936.9 1514.27,938.567 1514.5,940.5C 1516.43,940.729 1518.1,941.562 1519.5,943C 1521.67,945.167 1523.83,947.333 1526,949.5C 1527.44,950.9 1528.27,952.567 1528.5,954.5C 1529.5,954.5 1530.5,954.5 1531.5,954.5C 1531.5,955.5 1531.5,956.5 1531.5,957.5C 1533.43,957.729 1535.1,958.562 1536.5,960C 1538.67,962.167 1540.83,964.333 1543,966.5C 1544.44,967.9 1545.27,969.567 1545.5,971.5C 1546.5,971.5 1547.5,971.5 1548.5,971.5C 1548.5,972.5 1548.5,973.5 1548.5,974.5C 1550.43,974.729 1552.1,975.562 1553.5,977C 1555.67,979.167 1557.83,981.333 1560,983.5C 1561.44,984.9 1562.27,986.567 1562.5,988.5C 1563.5,988.5 1564.5,988.5 1565.5,988.5C 1565.5,989.5 1565.5,990.5 1565.5,991.5C 1567.43,991.729 1569.1,992.562 1570.5,994C 1572.67,996.167 1574.83,998.333 1577,1000.5C 1578.44,1001.9 1579.27,1003.57 1579.5,1005.5C 1581.43,1005.73 1583.1,1006.56 1584.5,1008C 1587.33,1011.5 1590.5,1014.67 1594,1017.5C 1595.44,1018.9 1596.27,1020.57 1596.5,1022.5C 1598.43,1022.73 1600.1,1023.56 1601.5,1025C 1603.67,1027.17 1605.83,1029.33 1608,1031.5C 1609.44,1032.9 1610.27,1034.57 1610.5,1036.5C 1611.5,1036.5 1612.5,1036.5 1613.5,1036.5C 1613.5,1037.5 1613.5,1038.5 1613.5,1039.5C 1615.43,1039.73 1617.1,1040.56 1618.5,1042C 1620.67,1044.17 1622.83,1046.33 1625,1048.5C 1626.44,1049.9 1627.27,1051.57 1627.5,1053.5C 1628.5,1053.5 1629.5,1053.5 1630.5,1053.5C 1630.5,1054.5 1630.5,1055.5 1630.5,1056.5C 1632.43,1056.73 1634.1,1057.56 1635.5,1059C 1637.67,1061.17 1639.83,1063.33 1642,1065.5C 1643.44,1066.9 1644.27,1068.57 1644.5,1070.5C 1646.43,1070.73 1648.1,1071.56 1649.5,1073C 1652.33,1076.5 1655.5,1079.67 1659,1082.5C 1660.44,1083.9 1661.27,1085.57 1661.5,1087.5C 1663.43,1087.73 1665.1,1088.56 1666.5,1090C 1668.67,1092.17 1670.83,1094.33 1673,1096.5C 1674.44,1097.9 1675.27,1099.57 1675.5,1101.5C 1676.5,1101.5 1677.5,1101.5 1678.5,1101.5C 1678.5,1102.5 1678.5,1103.5 1678.5,1104.5C 1680.43,1104.73 1682.1,1105.56 1683.5,1107C 1685.67,1109.17 1687.83,1111.33 1690,1113.5C 1691.44,1114.9 1692.27,1116.57 1692.5,1118.5C 1693.5,1118.5 1694.5,1118.5 1695.5,1118.5C 1695.5,1119.5 1695.5,1120.5 1695.5,1121.5C 1697.43,1121.73 1699.1,1122.56 1700.5,1124C 1702.67,1126.17 1704.83,1128.33 1707,1130.5C 1708.44,1131.9 1709.27,1133.57 1709.5,1135.5C 1710.5,1135.5 1711.5,1135.5 1712.5,1135.5C 1713.18,1137.67 1714.18,1139.67 1715.5,1141.5C 1715.18,1142.65 1714.52,1143.48 1713.5,1144C 1656.17,1144.67 1598.83,1144.67 1541.5,1144C 1537.14,1141.94 1532.47,1140.94 1527.5,1141C 1526.83,1140.33 1526.17,1139.67 1525.5,1139C 1522.63,1138.88 1519.96,1138.22 1517.5,1137C 1513.83,1136.67 1510.17,1136.33 1506.5,1136C 1501.46,1133.9 1496.13,1132.9 1490.5,1133C 1489.83,1132.33 1489.17,1131.67 1488.5,1131C 1484.83,1130.67 1481.17,1130.33 1477.5,1130C 1474.21,1127.79 1470.54,1126.96 1466.5,1127.5C 1466.5,1126.5 1466.5,1125.5 1466.5,1124.5C 1461.83,1124.5 1457.17,1124.5 1452.5,1124.5C 1452.5,1123.5 1452.5,1122.5 1452.5,1121.5C 1447.79,1121.83 1443.12,1121.49 1438.5,1120.5C 1431.14,1118.99 1423.81,1117.49 1416.5,1116C 1416.04,1115.59 1415.71,1115.09 1415.5,1114.5C 1410.87,1113.67 1406.2,1113.17 1401.5,1113C 1400.83,1112.33 1400.17,1111.67 1399.5,1111C 1395.5,1110.67 1391.5,1110.33 1387.5,1110C 1386.83,1109.33 1386.17,1108.67 1385.5,1108C 1382.22,1107.94 1379.22,1107.11 1376.5,1105.5C 1363.68,1103.55 1351.02,1101.39 1338.5,1099C 1334.2,1097.36 1329.86,1095.86 1325.5,1094.5C 1316.43,1093.1 1307.43,1091.6 1298.5,1090C 1297.83,1089.33 1297.17,1088.67 1296.5,1088C 1292.83,1087.67 1289.17,1087.33 1285.5,1087C 1281.6,1086.19 1277.94,1084.86 1274.5,1083C 1265.67,1082.22 1257,1080.89 1248.5,1079C 1245.19,1076.95 1241.52,1075.95 1237.5,1076C 1236.83,1075.33 1236.17,1074.67 1235.5,1074C 1231.83,1073.67 1228.17,1073.33 1224.5,1073C 1224.04,1072.59 1223.71,1072.09 1223.5,1071.5C 1207.7,1069.74 1192.36,1066.74 1177.5,1062.5C 1175.55,1058.4 1173.22,1054.4 1170.5,1050.5C 1169.55,1048.95 1169.21,1047.29 1169.5,1045.5C 1168.5,1045.5 1167.5,1045.5 1166.5,1045.5C 1166.5,1043.5 1166.5,1041.5 1166.5,1039.5C 1165.5,1039.5 1164.5,1039.5 1163.5,1039.5C 1161.18,1034.87 1158.85,1030.2 1156.5,1025.5C 1154.84,1022.2 1152.67,1019.2 1150,1016.5C 1149.51,1014.87 1149.34,1013.2 1149.5,1011.5C 1148.5,1011.5 1147.5,1011.5 1146.5,1011.5C 1144.06,1004.89 1140.56,998.891 1136,993.5C 1135.51,991.866 1135.34,990.199 1135.5,988.5C 1134.5,988.5 1133.5,988.5 1132.5,988.5C 1129.02,980.337 1124.52,972.67 1119,965.5C 1118.51,963.866 1118.34,962.199 1118.5,960.5C 1117.5,960.5 1116.5,960.5 1115.5,960.5C 1113.91,955.084 1111.24,950.084 1107.5,945.5C 1105.9,939.956 1103.07,935.29 1099,931.5C 1098.51,929.866 1098.34,928.199 1098.5,926.5C 1097.5,926.5 1096.5,926.5 1095.5,926.5C 1094.23,923.537 1092.9,920.537 1091.5,917.5C 1086.93,912.101 1083.43,906.101 1081,899.5C 1076.96,892.946 1072.63,886.612 1068,880.5C 1067.51,878.866 1067.34,877.199 1067.5,875.5C 1066.5,875.5 1065.5,875.5 1064.5,875.5C 1064.79,873.712 1064.45,872.045 1063.5,870.5C 1062.14,867.135 1060.14,864.135 1057.5,861.5C 1056.52,858.572 1056.18,855.572 1056.5,852.5 Z"/></g>
<g><path style="opacity:0.95" fill="#fefefe" d="M 1951.5,934.5 C 2078.17,934.5 2204.83,934.5 2331.5,934.5C 2331.85,937.602 2331.18,940.435 2329.5,943C 2315.88,952.632 2302.88,962.965 2290.5,974C 2288.47,975.879 2286.14,977.046 2283.5,977.5C 2283.5,978.5 2283.5,979.5 2283.5,980.5C 2275.12,986.212 2266.79,992.212 2258.5,998.5C 2246.95,1008.38 2235.28,1018.22 2223.5,1028C 2220.91,1029.45 2218.24,1030.61 2215.5,1031.5C 2212.6,1037.39 2207.94,1041.06 2201.5,1042.5C 2201.72,1043.68 2201.39,1044.68 2200.5,1045.5C 2195.82,1050.17 2190.48,1053.84 2184.5,1056.5C 2184.5,1057.5 2184.5,1058.5 2184.5,1059.5C 2182.25,1061.36 2179.59,1062.36 2176.5,1062.5C 2176.7,1064.39 2176.04,1065.89 2174.5,1067C 2172.24,1068.45 2169.91,1069.62 2167.5,1070.5C 2167.5,1071.5 2167.5,1072.5 2167.5,1073.5C 2166.45,1073.35 2165.45,1073.52 2164.5,1074C 2157.8,1080.56 2150.47,1086.06 2142.5,1090.5C 2142.5,1091.5 2142.5,1092.5 2142.5,1093.5C 2141.45,1093.35 2140.45,1093.52 2139.5,1094C 2135.72,1097.4 2131.72,1100.56 2127.5,1103.5C 2119.52,1104.33 2111.52,1104.83 2103.5,1105C 2102.67,1105.91 2101.67,1106.58 2100.5,1107C 2096.17,1107.33 2091.83,1107.67 2087.5,1108C 2086.67,1108.91 2085.67,1109.58 2084.5,1110C 2076.5,1110.33 2068.5,1110.67 2060.5,1111C 2059.83,1111.67 2059.17,1112.33 2058.5,1113C 2050.48,1113.17 2042.48,1113.67 2034.5,1114.5C 2033.97,1115.19 2033.31,1115.69 2032.5,1116C 2011.13,1118.56 1989.79,1120.56 1968.5,1122C 1967.83,1122.67 1967.17,1123.33 1966.5,1124C 1958.15,1124.17 1949.81,1124.67 1941.5,1125.5C 1941.29,1126.09 1940.96,1126.59 1940.5,1127C 1934.61,1126.98 1928.94,1127.98 1923.5,1130C 1916.17,1130.33 1908.83,1130.67 1901.5,1131C 1900.38,1132.04 1899.04,1132.71 1897.5,1133C 1890.17,1133.33 1882.83,1133.67 1875.5,1134C 1874.17,1134.67 1872.83,1135.33 1871.5,1136C 1863.83,1136.33 1856.17,1136.67 1848.5,1137C 1843.64,1138.12 1838.64,1138.95 1833.5,1139.5C 1833.29,1140.09 1832.96,1140.59 1832.5,1141C 1824.5,1141.33 1816.5,1141.67 1808.5,1142C 1807.67,1142.91 1806.67,1143.58 1805.5,1144C 1800.85,1144.5 1796.18,1144.67 1791.5,1144.5C 1791.5,1143.5 1791.5,1142.5 1791.5,1141.5C 1790.5,1141.5 1789.5,1141.5 1788.5,1141.5C 1782.77,1131.9 1776.94,1122.24 1771,1112.5C 1764.74,1106.21 1760.24,1098.88 1757.5,1090.5C 1756.5,1090.5 1755.5,1090.5 1754.5,1090.5C 1747,1077.51 1739.17,1064.84 1731,1052.5C 1729.01,1049.51 1726.68,1046.85 1724,1044.5C 1723.51,1042.87 1723.34,1041.2 1723.5,1039.5C 1722.5,1039.5 1721.5,1039.5 1720.5,1039.5C 1719.02,1034.92 1716.52,1030.92 1713,1027.5C 1711.74,1024.87 1710.58,1022.2 1709.5,1019.5C 1709.34,1016.99 1710.34,1015.16 1712.5,1014C 1718.05,1012.29 1723.71,1010.96 1729.5,1010C 1731.96,1008.29 1734.62,1006.96 1737.5,1006C 1742.96,1003.95 1748.63,1002.45 1754.5,1001.5C 1754.71,1000.91 1755.04,1000.41 1755.5,1000C 1761.67,998.585 1767.67,996.585 1773.5,994C 1778.34,992.43 1783.34,991.263 1788.5,990.5C 1793.84,987.503 1799.5,985.003 1805.5,983C 1808.17,982.667 1810.83,982.333 1813.5,982C 1816.04,979.907 1819.04,978.907 1822.5,979C 1825.04,977.369 1827.7,976.036 1830.5,975C 1839.33,972.795 1848,970.295 1856.5,967.5C 1859.56,966.149 1862.56,964.649 1865.5,963C 1873.08,960.681 1880.74,958.681 1888.5,957C 1891.83,955.333 1895.17,953.667 1898.5,952C 1904.51,951.407 1910.18,950.073 1915.5,948C 1916.17,947.333 1916.83,946.667 1917.5,946C 1925.06,943.526 1932.73,941.526 1940.5,940C 1943.03,937.943 1946.03,936.943 1949.5,937C 1950.38,936.292 1951.05,935.458 1951.5,934.5 Z"/></g>
<g><path style="opacity:0.983" fill="#fefefe" d="M 1012.5,1098.5 C 1019.53,1098.17 1026.53,1098.5 1033.5,1099.5C 1033.71,1100.09 1034.04,1100.59 1034.5,1101C 1037.17,1101.33 1039.83,1101.67 1042.5,1102C 1043.17,1102.67 1043.83,1103.33 1044.5,1104C 1053.85,1104.82 1063.19,1105.82 1072.5,1107C 1082.49,1108.46 1092.15,1110.96 1101.5,1114.5C 1106.13,1115.33 1110.8,1115.83 1115.5,1116C 1116.17,1116.67 1116.83,1117.33 1117.5,1118C 1122.17,1118.33 1126.83,1118.67 1131.5,1119C 1131.96,1119.41 1132.29,1119.91 1132.5,1120.5C 1140.27,1121.19 1147.94,1122.35 1155.5,1124C 1156.67,1124.42 1157.67,1125.09 1158.5,1126C 1168.37,1126.46 1178.04,1127.8 1187.5,1130C 1190.51,1131.92 1193.84,1132.92 1197.5,1133C 1197.96,1133.41 1198.29,1133.91 1198.5,1134.5C 1203.79,1135.49 1209.13,1135.83 1214.5,1135.5C 1214.5,1136.5 1214.5,1137.5 1214.5,1138.5C 1227.91,1139.12 1241.25,1140.96 1254.5,1144C 1255.67,1144.42 1256.67,1145.09 1257.5,1146C 1267.18,1148.13 1277.18,1149.46 1287.5,1150C 1287.96,1150.41 1288.29,1150.91 1288.5,1151.5C 1301.54,1153.59 1314.54,1155.75 1327.5,1158C 1328.67,1158.42 1329.67,1159.09 1330.5,1160C 1334.83,1160.33 1339.17,1160.67 1343.5,1161C 1343.96,1161.41 1344.29,1161.91 1344.5,1162.5C 1348.68,1163.15 1352.68,1164.32 1356.5,1166C 1369.57,1168.31 1382.91,1170.31 1396.5,1172C 1400.6,1173.73 1404.93,1174.73 1409.5,1175C 1410.67,1175.42 1411.67,1176.09 1412.5,1177C 1417.17,1177.33 1421.83,1177.67 1426.5,1178C 1429.48,1179.98 1432.48,1181.81 1435.5,1183.5C 1435.5,1184.5 1435.5,1185.5 1435.5,1186.5C 1441.45,1188.61 1446.45,1192.11 1450.5,1197C 1454.03,1197.56 1456.7,1199.39 1458.5,1202.5C 1465.66,1207.91 1472.99,1212.91 1480.5,1217.5C 1480.5,1218.5 1480.5,1219.5 1480.5,1220.5C 1481.87,1220.34 1483.21,1220.51 1484.5,1221C 1491.55,1227.36 1498.88,1233.19 1506.5,1238.5C 1509.21,1239.9 1511.87,1241.24 1514.5,1242.5C 1514.5,1243.5 1514.5,1244.5 1514.5,1245.5C 1515.55,1245.35 1516.55,1245.52 1517.5,1246C 1528.97,1254.81 1540.31,1263.64 1551.5,1272.5C 1556.75,1274.26 1560.41,1277.59 1562.5,1282.5C 1564.2,1282.34 1565.87,1282.51 1567.5,1283C 1574.85,1288.69 1582.18,1294.35 1589.5,1300C 1591.43,1302.26 1592.93,1304.76 1594,1307.5C 1594.33,1315.17 1594.67,1322.83 1595,1330.5C 1596.22,1335.39 1596.89,1340.39 1597,1345.5C 1597.42,1346.67 1598.09,1347.67 1599,1348.5C 1601.05,1366.02 1602.55,1383.69 1603.5,1401.5C 1604.19,1402.03 1604.69,1402.69 1605,1403.5C 1607.45,1425.89 1609.61,1448.23 1611.5,1470.5C 1612.09,1470.71 1612.59,1471.04 1613,1471.5C 1613.33,1480.17 1613.67,1488.83 1614,1497.5C 1614.67,1498.17 1615.33,1498.83 1616,1499.5C 1615.85,1506.11 1616.85,1512.45 1619,1518.5C 1621.57,1549.18 1624.57,1579.85 1628,1610.5C 1628.67,1611.17 1629.33,1611.83 1630,1612.5C 1630.33,1620.83 1630.67,1629.17 1631,1637.5C 1631.67,1638.17 1632.33,1638.83 1633,1639.5C 1633.33,1647.83 1633.67,1656.17 1634,1664.5C 1634.67,1665.17 1635.33,1665.83 1636,1666.5C 1636.33,1672.83 1636.67,1679.17 1637,1685.5C 1638.62,1695.25 1640.28,1704.92 1642,1714.5C 1643.29,1730.48 1644.29,1746.48 1645,1762.5C 1645.41,1762.96 1645.91,1763.29 1646.5,1763.5C 1647.33,1768.47 1647.83,1773.47 1648,1778.5C 1649.04,1779.62 1649.71,1780.96 1650,1782.5C 1650.33,1789.83 1650.67,1797.17 1651,1804.5C 1651.67,1805.17 1652.33,1805.83 1653,1806.5C 1653.17,1815.19 1653.67,1823.85 1654.5,1832.5C 1655.19,1833.03 1655.69,1833.69 1656,1834.5C 1656.33,1842.83 1656.67,1851.17 1657,1859.5C 1658.04,1860.62 1658.71,1861.96 1659,1863.5C 1660.94,1876.06 1661.94,1888.73 1662,1901.5C 1662.67,1902.17 1663.33,1902.83 1664,1903.5C 1664.17,1912.19 1664.67,1920.85 1665.5,1929.5C 1666.09,1929.71 1666.59,1930.04 1667,1930.5C 1667.33,1938.17 1667.67,1945.83 1668,1953.5C 1669.71,1961.87 1671.38,1970.2 1673,1978.5C 1673.67,1986.5 1673.67,1994.5 1673,2002.5C 1669.82,2005.17 1666.32,2007.34 1662.5,2009C 1656.72,2010.7 1651.38,2013.36 1646.5,2017C 1642.47,2019.35 1638.13,2020.52 1633.5,2020.5C 1633.5,2021.5 1633.5,2022.5 1633.5,2023.5C 1628.22,2025.74 1622.88,2027.91 1617.5,2030C 1606.49,2036.99 1594.99,2043.16 1583,2048.5C 1579.44,2050.56 1575.61,2051.56 1571.5,2051.5C 1571.5,2052.5 1571.5,2053.5 1571.5,2054.5C 1566.22,2056.74 1560.88,2058.91 1555.5,2061C 1550,2064.59 1544.33,2067.92 1538.5,2071C 1536.19,2071.5 1533.86,2071.66 1531.5,2071.5C 1531.5,2072.5 1531.5,2073.5 1531.5,2074.5C 1529.71,2074.21 1528.05,2074.55 1526.5,2075.5C 1521.3,2079.76 1515.3,2082.43 1508.5,2083.5C 1506.83,2083.33 1505.17,2083.17 1503.5,2083C 1499.87,2079.51 1495.87,2076.68 1491.5,2074.5C 1491.5,2073.5 1491.5,2072.5 1491.5,2071.5C 1490.5,2071.5 1489.5,2071.5 1488.5,2071.5C 1488.5,2070.5 1488.5,2069.5 1488.5,2068.5C 1487.45,2068.65 1486.45,2068.48 1485.5,2068C 1481.79,2064.82 1478.13,2061.66 1474.5,2058.5C 1473.68,2057.61 1472.68,2057.28 1471.5,2057.5C 1471.5,2056.5 1471.5,2055.5 1471.5,2054.5C 1470.5,2054.5 1469.5,2054.5 1468.5,2054.5C 1468.5,2053.5 1468.5,2052.5 1468.5,2051.5C 1467.13,2051.66 1465.79,2051.49 1464.5,2051C 1440.54,2030.68 1416.54,2010.34 1392.5,1990C 1391.55,1989.52 1390.55,1989.35 1389.5,1989.5C 1389.5,1988.5 1389.5,1987.5 1389.5,1986.5C 1381.07,1981.94 1373.74,1975.94 1367.5,1968.5C 1358,1961.49 1348.67,1954.33 1339.5,1947C 1336.62,1944.74 1334.62,1941.9 1333.5,1938.5C 1331.71,1938.79 1330.05,1938.45 1328.5,1937.5C 1316.59,1926.87 1304.26,1916.7 1291.5,1907C 1288.88,1903.87 1285.88,1901.37 1282.5,1899.5C 1282.5,1898.5 1282.5,1897.5 1282.5,1896.5C 1279.54,1896.05 1276.87,1894.88 1274.5,1893C 1268.22,1885.51 1260.55,1880.34 1251.5,1877.5C 1234.76,1874.69 1217.76,1872.19 1200.5,1870C 1197.36,1868.76 1194.03,1868.09 1190.5,1868C 1190.04,1867.59 1189.71,1867.09 1189.5,1866.5C 1183.86,1865.67 1178.2,1865.17 1172.5,1865C 1172.04,1864.59 1171.71,1864.09 1171.5,1863.5C 1160.61,1862.85 1149.94,1861.35 1139.5,1859C 1138.33,1858.58 1137.33,1857.91 1136.5,1857C 1132.97,1856.91 1129.64,1856.24 1126.5,1855C 1115.69,1854.05 1105.03,1852.71 1094.5,1851C 1084.97,1847.4 1074.97,1845.4 1064.5,1845C 1063.83,1844.33 1063.17,1843.67 1062.5,1843C 1051.41,1842.07 1040.41,1840.73 1029.5,1839C 1025.68,1838.12 1022.01,1836.79 1018.5,1835C 1007.01,1834.22 995.676,1832.89 984.5,1831C 983.833,1830.33 983.167,1829.67 982.5,1829C 978.167,1828.67 973.833,1828.33 969.5,1828C 964.496,1826.3 959.496,1824.8 954.5,1823.5C 944.677,1822.79 935.011,1821.62 925.5,1820C 918.905,1818.26 912.238,1816.59 905.5,1815C 901.5,1814.67 897.5,1814.33 893.5,1814C 893.043,1813.59 892.709,1813.09 892.5,1812.5C 881.432,1811.1 870.432,1809.6 859.5,1808C 855.421,1807.06 851.421,1805.9 847.5,1804.5C 842.198,1803.67 836.864,1803.17 831.5,1803C 831.043,1802.59 830.709,1802.09 830.5,1801.5C 824.862,1800.67 819.196,1800.17 813.5,1800C 812.012,1798.28 810.179,1797.12 808,1796.5C 800.015,1785.53 791.348,1775.2 782,1765.5C 780.76,1762.59 779.094,1759.92 777,1757.5C 772.026,1752.52 767.36,1747.19 763,1741.5C 762.517,1740.55 762.351,1739.55 762.5,1738.5C 761.5,1738.5 760.5,1738.5 759.5,1738.5C 754.12,1732.43 749.453,1725.77 745.5,1718.5C 744.5,1718.5 743.5,1718.5 742.5,1718.5C 740.846,1716.13 739.513,1713.46 738.5,1710.5C 727.164,1699.5 716.997,1687.5 708,1674.5C 700.425,1666.33 693.092,1658 686,1649.5C 684.562,1648.1 683.729,1646.43 683.5,1644.5C 682.5,1644.5 681.5,1644.5 680.5,1644.5C 678.639,1642.25 677.639,1639.59 677.5,1636.5C 676.5,1636.5 675.5,1636.5 674.5,1636.5C 674.719,1635.32 674.386,1634.32 673.5,1633.5C 669.177,1629.01 665.01,1624.34 661,1619.5C 660.517,1618.55 660.351,1617.55 660.5,1616.5C 659.5,1616.5 658.5,1616.5 657.5,1616.5C 653.598,1611.04 649.931,1605.37 646.5,1599.5C 645.5,1599.5 644.5,1599.5 643.5,1599.5C 638.468,1593.13 633.801,1586.46 629.5,1579.5C 628.5,1579.5 627.5,1579.5 626.5,1579.5C 625.5,1576.83 624.5,1574.17 623.5,1571.5C 622.178,1571.67 621.011,1571.34 620,1570.5C 618.214,1567.92 616.714,1565.25 615.5,1562.5C 614.5,1562.5 613.5,1562.5 612.5,1562.5C 610.965,1559.77 609.131,1557.1 607,1554.5C 606.333,1551.17 606.333,1547.83 607,1544.5C 609.927,1541.37 612.594,1538.04 615,1534.5C 617.891,1528.29 621.557,1522.62 626,1517.5C 626.483,1516.55 626.649,1515.55 626.5,1514.5C 627.5,1514.5 628.5,1514.5 629.5,1514.5C 630.926,1509.66 633.426,1505.33 637,1501.5C 637.49,1500.21 637.657,1498.87 637.5,1497.5C 638.5,1497.5 639.5,1497.5 640.5,1497.5C 640.421,1496.07 640.754,1494.74 641.5,1493.5C 647.734,1484.57 653.9,1475.57 660,1466.5C 660.483,1465.55 660.649,1464.55 660.5,1463.5C 661.5,1463.5 662.5,1463.5 663.5,1463.5C 664.736,1459.22 666.569,1455.22 669,1451.5C 687.644,1424.9 705.81,1397.9 723.5,1370.5C 724.695,1368.7 726.362,1367.7 728.5,1367.5C 729.758,1360.02 733.258,1353.68 739,1348.5C 739.49,1347.21 739.657,1345.87 739.5,1344.5C 740.5,1344.5 741.5,1344.5 742.5,1344.5C 742.343,1343.13 742.51,1341.79 743,1340.5C 746.693,1337.09 749.359,1333.09 751,1328.5C 757.381,1320.78 763.048,1312.45 768,1303.5C 788.479,1286.69 808.646,1269.52 828.5,1252C 829.793,1251.51 831.127,1251.34 832.5,1251.5C 832.5,1250.5 832.5,1249.5 832.5,1248.5C 833.675,1248.72 834.675,1248.39 835.5,1247.5C 839.992,1243.18 844.659,1239.01 849.5,1235C 850.448,1234.52 851.448,1234.35 852.5,1234.5C 852.5,1233.5 852.5,1232.5 852.5,1231.5C 857.875,1227.47 863.541,1223.81 869.5,1220.5C 869.5,1219.5 869.5,1218.5 869.5,1217.5C 875.873,1212.47 882.54,1207.8 889.5,1203.5C 889.5,1202.5 889.5,1201.5 889.5,1200.5C 892.167,1199.5 894.833,1198.5 897.5,1197.5C 897.297,1195.61 897.963,1194.11 899.5,1193C 904.604,1189.15 909.604,1185.15 914.5,1181C 915.448,1180.52 916.448,1180.35 917.5,1180.5C 917.5,1179.5 917.5,1178.5 917.5,1177.5C 922.043,1174.65 926.376,1171.31 930.5,1167.5C 931.736,1166.75 933.07,1166.42 934.5,1166.5C 934.5,1165.5 934.5,1164.5 934.5,1163.5C 935.5,1163.5 936.5,1163.5 937.5,1163.5C 937.5,1162.5 937.5,1161.5 937.5,1160.5C 942.583,1157.77 947.249,1154.27 951.5,1150C 952.448,1149.52 953.448,1149.35 954.5,1149.5C 954.5,1148.5 954.5,1147.5 954.5,1146.5C 958.182,1144.68 961.516,1142.18 964.5,1139C 965.793,1138.51 967.127,1138.34 968.5,1138.5C 968.5,1137.5 968.5,1136.5 968.5,1135.5C 969.5,1135.5 970.5,1135.5 971.5,1135.5C 971.5,1134.5 971.5,1133.5 971.5,1132.5C 976.717,1128.29 982.384,1124.63 988.5,1121.5C 988.5,1120.5 988.5,1119.5 988.5,1118.5C 989.5,1118.5 990.5,1118.5 991.5,1118.5C 991.5,1117.5 991.5,1116.5 991.5,1115.5C 999.375,1110.96 1006.37,1105.3 1012.5,1098.5 Z"/></g>
<g><path style="opacity:0.982" fill="#fefefe" d="M 2024.5,1180.5 C 2099.17,1180.33 2173.83,1180.5 2248.5,1181C 2258.37,1190.7 2268.7,1199.87 2279.5,1208.5C 2280.39,1209.32 2280.72,1210.32 2280.5,1211.5C 2288.27,1217.01 2295.93,1222.68 2303.5,1228.5C 2303.5,1229.5 2303.5,1230.5 2303.5,1231.5C 2304.55,1231.35 2305.55,1231.52 2306.5,1232C 2309.22,1233.52 2311.22,1235.69 2312.5,1238.5C 2317.54,1241.57 2322.2,1244.9 2326.5,1248.5C 2326.5,1249.5 2326.5,1250.5 2326.5,1251.5C 2327.55,1251.35 2328.55,1251.52 2329.5,1252C 2337.34,1258.34 2344.67,1265.17 2351.5,1272.5C 2356.21,1275.89 2360.88,1279.23 2365.5,1282.5C 2365.5,1283.5 2365.5,1284.5 2365.5,1285.5C 2367.43,1285.73 2369.1,1286.56 2370.5,1288C 2376.97,1293.84 2383.64,1299.51 2390.5,1305C 2393.38,1307.26 2395.38,1310.1 2396.5,1313.5C 2399.46,1313.95 2402.13,1315.12 2404.5,1317C 2406.85,1320.48 2409.85,1322.98 2413.5,1324.5C 2413.5,1325.5 2413.5,1326.5 2413.5,1327.5C 2414.5,1327.5 2415.5,1327.5 2416.5,1327.5C 2416.5,1328.5 2416.5,1329.5 2416.5,1330.5C 2417.5,1330.5 2418.5,1330.5 2419.5,1330.5C 2419.5,1331.5 2419.5,1332.5 2419.5,1333.5C 2420.87,1333.34 2422.21,1333.51 2423.5,1334C 2427.44,1338.12 2431.77,1341.62 2436.5,1344.5C 2436.5,1345.5 2436.5,1346.5 2436.5,1347.5C 2437.5,1347.5 2438.5,1347.5 2439.5,1347.5C 2439.5,1348.5 2439.5,1349.5 2439.5,1350.5C 2442.47,1350.63 2444.47,1352.13 2445.5,1355C 2448,1356.08 2450.33,1357.41 2452.5,1359C 2456.78,1364.04 2461.62,1368.54 2467,1372.5C 2467.48,1373.45 2467.65,1374.45 2467.5,1375.5C 2476.77,1380.32 2484.77,1386.82 2491.5,1395C 2492.5,1395.33 2493.5,1395.67 2494.5,1396C 2498.67,1399.83 2502.83,1403.67 2507,1407.5C 2508.44,1408.9 2509.27,1410.57 2509.5,1412.5C 2515.23,1414.32 2519.9,1417.65 2523.5,1422.5C 2524.32,1423.39 2525.32,1423.72 2526.5,1423.5C 2526.5,1424.5 2526.5,1425.5 2526.5,1426.5C 2527.5,1426.5 2528.5,1426.5 2529.5,1426.5C 2529.5,1427.5 2529.5,1428.5 2529.5,1429.5C 2530.5,1429.5 2531.5,1429.5 2532.5,1429.5C 2532.5,1430.5 2532.5,1431.5 2532.5,1432.5C 2533.87,1432.34 2535.21,1432.51 2536.5,1433C 2540.48,1437.16 2544.81,1440.66 2549.5,1443.5C 2549.5,1444.5 2549.5,1445.5 2549.5,1446.5C 2551.43,1446.73 2553.1,1447.56 2554.5,1449C 2558.88,1453.38 2563.55,1457.38 2568.5,1461C 2574.12,1465.42 2576.62,1471.26 2576,1478.5C 2576.75,1482.08 2578.08,1485.42 2580,1488.5C 2580.17,1492.54 2580.67,1496.54 2581.5,1500.5C 2582.09,1500.71 2582.59,1501.04 2583,1501.5C 2583.33,1504.83 2583.67,1508.17 2584,1511.5C 2585.75,1514.68 2587.08,1518.02 2588,1521.5C 2590.28,1529.31 2591.78,1537.31 2592.5,1545.5C 2593.09,1545.71 2593.59,1546.04 2594,1546.5C 2594.52,1554.31 2596.52,1561.64 2600,1568.5C 2601.41,1575.87 2602.74,1583.2 2604,1590.5C 2604.91,1591.33 2605.58,1592.33 2606,1593.5C 2606.41,1599.28 2607.41,1604.94 2609,1610.5C 2609.67,1611.17 2610.33,1611.83 2611,1612.5C 2611.22,1618.87 2612.39,1624.87 2614.5,1630.5C 2614.17,1632.17 2613.83,1633.83 2613.5,1635.5C 2611.15,1636.06 2608.81,1636.73 2606.5,1637.5C 2600.26,1642.58 2593.26,1646.08 2585.5,1648C 2580.57,1652.21 2574.9,1655.21 2568.5,1657C 2565.28,1659.75 2561.61,1661.25 2557.5,1661.5C 2557.5,1662.5 2557.5,1663.5 2557.5,1664.5C 2553.14,1666.46 2548.47,1667.46 2543.5,1667.5C 2543.5,1668.5 2543.5,1669.5 2543.5,1670.5C 2536.62,1673.87 2529.62,1676.87 2522.5,1679.5C 2520.68,1680.77 2519.02,1682.27 2517.5,1684C 2510.05,1686.64 2502.72,1689.47 2495.5,1692.5C 2495.5,1693.5 2495.5,1694.5 2495.5,1695.5C 2491.28,1696.84 2486.95,1698 2482.5,1699C 2475.85,1704.8 2468.19,1708.63 2459.5,1710.5C 2456.67,1713.67 2453.34,1716.17 2449.5,1718C 2441.4,1720.76 2433.74,1724.43 2426.5,1729C 2424.42,1729.19 2422.42,1729.69 2420.5,1730.5C 2417.15,1733.5 2413.48,1736 2409.5,1738C 2405.4,1740.05 2401.06,1741.55 2396.5,1742.5C 2393.75,1745.09 2390.75,1747.25 2387.5,1749C 2379.38,1751.81 2371.71,1755.47 2364.5,1760C 2360.07,1761.09 2356.07,1763.09 2352.5,1766C 2335.4,1773.44 2318.73,1781.78 2302.5,1791C 2296.09,1792.7 2290.43,1795.7 2285.5,1800C 2279.32,1801.73 2273.66,1804.4 2268.5,1808C 2258.92,1811.94 2249.58,1816.61 2240.5,1822C 2234.09,1823.7 2228.43,1826.7 2223.5,1831C 2219.4,1833.04 2215.07,1834.54 2210.5,1835.5C 2205.01,1838.52 2199.68,1841.69 2194.5,1845C 2192.5,1845.33 2190.5,1845.67 2188.5,1846C 2187.04,1847.7 2185.38,1849.2 2183.5,1850.5C 2176.19,1853.23 2169.19,1856.39 2162.5,1860C 2160.17,1861.67 2157.83,1863.33 2155.5,1865C 2153.5,1865.33 2151.5,1865.67 2149.5,1866C 2143.91,1869.62 2138.24,1872.96 2132.5,1876C 2130.19,1876.5 2127.86,1876.66 2125.5,1876.5C 2125.5,1877.5 2125.5,1878.5 2125.5,1879.5C 2122.77,1879.26 2120.44,1880.1 2118.5,1882C 2110.83,1882.33 2103.17,1882.67 2095.5,1883C 2094.83,1883.67 2094.17,1884.33 2093.5,1885C 2085.83,1885.33 2078.17,1885.67 2070.5,1886C 2069.17,1886.67 2067.83,1887.33 2066.5,1888C 2061.39,1888.11 2056.39,1888.78 2051.5,1890C 2044.5,1890.33 2037.5,1890.67 2030.5,1891C 2029.83,1891.67 2029.17,1892.33 2028.5,1893C 2011.71,1894.13 1995.04,1895.47 1978.5,1897C 1977.83,1897.67 1977.17,1898.33 1976.5,1899C 1968.96,1899.14 1961.62,1900.14 1954.5,1902C 1941.01,1903.86 1927.34,1904.86 1913.5,1905C 1913.04,1905.41 1912.71,1905.91 1912.5,1906.5C 1904.17,1907.17 1895.83,1907.83 1887.5,1908.5C 1881.51,1909.77 1875.51,1911.27 1869.5,1913C 1853.65,1914.88 1837.65,1916.22 1821.5,1917C 1820.38,1918.04 1819.04,1918.71 1817.5,1919C 1810.71,1919.2 1804.05,1920.03 1797.5,1921.5C 1795.83,1921.17 1794.17,1920.83 1792.5,1920.5C 1789.82,1913.6 1787.65,1906.6 1786,1899.5C 1784.16,1888.95 1782.82,1878.28 1782,1867.5C 1781.09,1866.67 1780.42,1865.67 1780,1864.5C 1777.01,1850.56 1775.18,1836.56 1774.5,1822.5C 1773.5,1822.5 1772.5,1822.5 1771.5,1822.5C 1771.67,1817.16 1771.5,1811.82 1771,1806.5C 1768.91,1803.63 1767.91,1800.29 1768,1796.5C 1767.09,1795.67 1766.42,1794.67 1766,1793.5C 1764.08,1783.34 1762.74,1773 1762,1762.5C 1761.09,1761.67 1760.42,1760.67 1760,1759.5C 1756.24,1740.27 1753.07,1720.94 1750.5,1701.5C 1746.57,1687.47 1744.07,1673.14 1743,1658.5C 1742.33,1657.83 1741.67,1657.17 1741,1656.5C 1740.67,1651.5 1740.33,1646.5 1740,1641.5C 1739.33,1640.83 1738.67,1640.17 1738,1639.5C 1738.08,1635.15 1737.08,1631.15 1735,1627.5C 1732.91,1616.23 1730.91,1604.89 1729,1593.5C 1728.67,1588.83 1728.33,1584.17 1728,1579.5C 1726.77,1576.7 1726.1,1573.7 1726,1570.5C 1725.33,1569.83 1724.67,1569.17 1724,1568.5C 1724.12,1562.55 1723.12,1556.88 1721,1551.5C 1720.67,1546.5 1720.33,1541.5 1720,1536.5C 1719.33,1535.83 1718.67,1535.17 1718,1534.5C 1716.27,1524.51 1714.27,1514.51 1712,1504.5C 1710.75,1494.86 1709.75,1485.19 1709,1475.5C 1708.59,1475.04 1708.09,1474.71 1707.5,1474.5C 1706.68,1471.22 1706.18,1467.88 1706,1464.5C 1705.33,1463.83 1704.67,1463.17 1704,1462.5C 1703.67,1457.83 1703.33,1453.17 1703,1448.5C 1702.09,1447.67 1701.42,1446.67 1701,1445.5C 1701.12,1439.55 1700.12,1433.88 1698,1428.5C 1697.67,1423.5 1697.33,1418.5 1697,1413.5C 1696.33,1412.83 1695.67,1412.17 1695,1411.5C 1694.9,1408.3 1694.23,1405.3 1693,1402.5C 1692.67,1397.5 1692.33,1392.5 1692,1387.5C 1691.33,1386.83 1690.67,1386.17 1690,1385.5C 1689.67,1380.5 1689.33,1375.5 1689,1370.5C 1688.33,1369.83 1687.67,1369.17 1687,1368.5C 1685.3,1360.32 1683.97,1351.98 1683,1343.5C 1682.09,1342.67 1681.42,1341.67 1681,1340.5C 1679.74,1329.87 1678.41,1319.2 1677,1308.5C 1673.82,1299.43 1671.49,1290.1 1670,1280.5C 1669.33,1274.17 1669.33,1267.83 1670,1261.5C 1677.05,1258.53 1684.55,1256.7 1692.5,1256C 1693.62,1254.96 1694.96,1254.29 1696.5,1254C 1704.31,1252.24 1712.31,1251.24 1720.5,1251C 1724.37,1249.17 1728.37,1247.5 1732.5,1246C 1736.17,1245.67 1739.83,1245.33 1743.5,1245C 1744.17,1244.33 1744.83,1243.67 1745.5,1243C 1749.5,1242.67 1753.5,1242.33 1757.5,1242C 1758.33,1241.09 1759.33,1240.42 1760.5,1240C 1764.5,1239.67 1768.5,1239.33 1772.5,1239C 1775.68,1237.25 1779.02,1235.92 1782.5,1235C 1786.5,1234.67 1790.5,1234.33 1794.5,1234C 1795.17,1233.33 1795.83,1232.67 1796.5,1232C 1800.87,1231.83 1805.2,1231.33 1809.5,1230.5C 1818.37,1227.86 1827.37,1225.36 1836.5,1223C 1844.31,1221.24 1852.31,1220.24 1860.5,1220C 1861.17,1219.33 1861.83,1218.67 1862.5,1218C 1866.16,1217.92 1869.49,1216.92 1872.5,1215C 1876.54,1214.83 1880.54,1214.33 1884.5,1213.5C 1884.71,1212.91 1885.04,1212.41 1885.5,1212C 1890.8,1212.09 1895.8,1211.09 1900.5,1209C 1904.5,1208.67 1908.5,1208.33 1912.5,1208C 1915.68,1206.25 1919.02,1204.92 1922.5,1204C 1935.19,1201.82 1947.85,1199.48 1960.5,1197C 1968.77,1193.41 1977.44,1191.41 1986.5,1191C 1987.33,1190.09 1988.33,1189.42 1989.5,1189C 1996.37,1188.77 2003.04,1187.77 2009.5,1186C 2010.17,1185.33 2010.83,1184.67 2011.5,1184C 2015.54,1183.83 2019.54,1183.33 2023.5,1182.5C 2023.86,1181.82 2024.2,1181.15 2024.5,1180.5 Z"/></g>
<g><path style="opacity:0.974" fill="#fefefe" d="M 608.5,1669.5 C 609.552,1669.35 610.552,1669.52 611.5,1670C 623.374,1686.2 635.874,1702.04 649,1717.5C 649.483,1718.45 649.649,1719.45 649.5,1720.5C 650.5,1720.5 651.5,1720.5 652.5,1720.5C 653.704,1722.73 654.87,1725.07 656,1727.5C 657.154,1728.74 658.488,1729.74 660,1730.5C 677.346,1753.17 695.179,1775.51 713.5,1797.5C 714.452,1799.05 714.785,1800.71 714.5,1802.5C 715.5,1802.5 716.5,1802.5 717.5,1802.5C 717.5,1803.5 717.5,1804.5 717.5,1805.5C 718.5,1805.5 719.5,1805.5 720.5,1805.5C 723.531,1809.89 726.197,1814.55 728.5,1819.5C 729.5,1819.5 730.5,1819.5 731.5,1819.5C 735.922,1827.12 741.422,1834.12 748,1840.5C 749.863,1845.04 752.863,1848.7 757,1851.5C 762.469,1859.6 768.302,1867.44 774.5,1875C 789.196,1877.28 803.863,1879.62 818.5,1882C 821.813,1884.05 825.479,1885.05 829.5,1885C 829.957,1885.41 830.291,1885.91 830.5,1886.5C 841.408,1887.37 852.075,1888.87 862.5,1891C 870.377,1893.04 878.377,1894.71 886.5,1896C 887.167,1896.67 887.833,1897.33 888.5,1898C 893.167,1898.33 897.833,1898.67 902.5,1899C 903.167,1899.67 903.833,1900.33 904.5,1901C 909.167,1901.33 913.833,1901.67 918.5,1902C 919.167,1902.67 919.833,1903.33 920.5,1904C 923.7,1904.1 926.7,1904.77 929.5,1906C 933.833,1906.33 938.167,1906.67 942.5,1907C 947.606,1908.99 952.939,1909.99 958.5,1910C 959.672,1910.42 960.672,1911.09 961.5,1912C 965.833,1912.33 970.167,1912.67 974.5,1913C 977.848,1914.97 981.514,1915.97 985.5,1916C 985.957,1916.41 986.291,1916.91 986.5,1917.5C 991.467,1918.33 996.467,1918.83 1001.5,1919C 1001.96,1919.41 1002.29,1919.91 1002.5,1920.5C 1015.55,1922.34 1028.55,1924.51 1041.5,1927C 1041.96,1927.41 1042.29,1927.91 1042.5,1928.5C 1053.19,1928.96 1063.52,1930.46 1073.5,1933C 1076.85,1934.97 1080.51,1935.97 1084.5,1936C 1085.17,1936.67 1085.83,1937.33 1086.5,1938C 1095.68,1938.29 1104.68,1939.29 1113.5,1941C 1114.67,1941.42 1115.67,1942.09 1116.5,1943C 1124.79,1943.11 1132.79,1944.44 1140.5,1947C 1140.96,1947.41 1141.29,1947.91 1141.5,1948.5C 1152.19,1948.96 1162.52,1950.46 1172.5,1953C 1175.9,1954.82 1179.57,1955.98 1183.5,1956.5C 1185.42,1959.24 1188.08,1960.74 1191.5,1961C 1195.28,1963.44 1198.78,1966.27 1202,1969.5C 1218.01,1978.59 1233.18,1988.75 1247.5,2000C 1248.79,2000.49 1250.13,2000.66 1251.5,2000.5C 1251.5,2001.5 1251.5,2002.5 1251.5,2003.5C 1256.48,2004.53 1260.81,2007.03 1264.5,2011C 1265.79,2011.49 1267.13,2011.66 1268.5,2011.5C 1268.5,2012.5 1268.5,2013.5 1268.5,2014.5C 1269.87,2014.34 1271.21,2014.51 1272.5,2015C 1279.81,2020.33 1287.14,2025.66 1294.5,2031C 1297.09,2032.45 1299.76,2033.61 1302.5,2034.5C 1302.5,2035.5 1302.5,2036.5 1302.5,2037.5C 1303.5,2037.5 1304.5,2037.5 1305.5,2037.5C 1305.67,2041.18 1305.5,2044.85 1305,2048.5C 1303.03,2051.85 1302.03,2055.51 1302,2059.5C 1301.59,2059.96 1301.09,2060.29 1300.5,2060.5C 1298.77,2069.54 1296.6,2078.54 1294,2087.5C 1293.59,2087.96 1293.09,2088.29 1292.5,2088.5C 1291.1,2095.57 1289.6,2102.57 1288,2109.5C 1287.33,2110.17 1286.67,2110.83 1286,2111.5C 1285.73,2117.67 1284.06,2123.34 1281,2128.5C 1280.67,2131.83 1280.33,2135.17 1280,2138.5C 1279.59,2138.96 1279.09,2139.29 1278.5,2139.5C 1277.68,2142.78 1277.18,2146.12 1277,2149.5C 1275.15,2153.02 1273.48,2156.69 1272,2160.5C 1271.5,2162.81 1271.34,2165.14 1271.5,2167.5C 1270.5,2167.5 1269.5,2167.5 1268.5,2167.5C 1268.67,2171.18 1268.5,2174.85 1268,2178.5C 1266.74,2184.27 1265.08,2189.94 1263,2195.5C 1262.33,2196.17 1261.67,2196.83 1261,2197.5C 1260.67,2200.5 1260.33,2203.5 1260,2206.5C 1259.33,2207.17 1258.67,2207.83 1258,2208.5C 1257.5,2211.82 1257.33,2215.15 1257.5,2218.5C 1256.5,2218.5 1255.5,2218.5 1254.5,2218.5C 1254.67,2221.85 1254.5,2225.18 1254,2228.5C 1252.08,2231.2 1250.75,2234.2 1250,2237.5C 1248.86,2244.21 1247.52,2250.88 1246,2257.5C 1245.33,2258.17 1244.67,2258.83 1244,2259.5C 1242.92,2265.29 1241.59,2270.95 1240,2276.5C 1239.59,2276.96 1239.09,2277.29 1238.5,2277.5C 1237.1,2284.57 1235.6,2291.57 1234,2298.5C 1232.96,2301.3 1231.63,2303.96 1230,2306.5C 1229.67,2309.5 1229.33,2312.5 1229,2315.5C 1228.69,2316.31 1228.19,2316.97 1227.5,2317.5C 1227.17,2322.67 1226.83,2327.83 1226.5,2333C 1228.74,2345.27 1229.91,2357.77 1230,2370.5C 1231.79,2375.39 1233.12,2380.39 1234,2385.5C 1235.85,2399.4 1237.18,2413.4 1238,2427.5C 1238.91,2428.33 1239.58,2429.33 1240,2430.5C 1239.89,2436.45 1240.89,2442.12 1243,2447.5C 1243.17,2453.2 1243.67,2458.86 1244.5,2464.5C 1245.19,2465.03 1245.69,2465.69 1246,2466.5C 1248.24,2484.75 1250.24,2503.09 1252,2521.5C 1252.67,2522.17 1253.33,2522.83 1254,2523.5C 1254.33,2530.17 1254.67,2536.83 1255,2543.5C 1255.67,2544.17 1256.33,2544.83 1257,2545.5C 1257.17,2552.52 1257.67,2559.52 1258.5,2566.5C 1259.09,2566.71 1259.59,2567.04 1260,2567.5C 1260.33,2574.5 1260.67,2581.5 1261,2588.5C 1261.67,2589.17 1262.33,2589.83 1263,2590.5C 1263.33,2594.17 1263.67,2597.83 1264,2601.5C 1266.28,2605.62 1266.78,2609.95 1265.5,2614.5C 1261.83,2614.5 1258.17,2614.5 1254.5,2614.5C 1254.5,2613.5 1254.5,2612.5 1254.5,2611.5C 1252.8,2611.66 1251.13,2611.49 1249.5,2611C 1244.22,2607.59 1238.55,2604.92 1232.5,2603C 1230.29,2601.19 1227.95,2599.52 1225.5,2598C 1216.03,2593.81 1206.7,2589.15 1197.5,2584C 1195.83,2583.67 1194.17,2583.33 1192.5,2583C 1190.64,2581.24 1188.64,2579.74 1186.5,2578.5C 1171.31,2571.08 1156.31,2563.58 1141.5,2556C 1135.81,2553.52 1130.15,2551.35 1124.5,2549.5C 1124.5,2548.5 1124.5,2547.5 1124.5,2546.5C 1122.8,2546.66 1121.13,2546.49 1119.5,2546C 1088.88,2530.37 1058.22,2514.71 1027.5,2499C 1025.87,2498.51 1024.2,2498.34 1022.5,2498.5C 1022.5,2497.5 1022.5,2496.5 1022.5,2495.5C 1020.8,2495.66 1019.13,2495.49 1017.5,2495C 1002.36,2486.84 987.024,2478.84 971.5,2471C 967.747,2469.89 964.08,2468.72 960.5,2467.5C 960.5,2466.5 960.5,2465.5 960.5,2464.5C 958.801,2464.66 957.134,2464.49 955.5,2464C 950.197,2460.78 944.531,2458.11 938.5,2456C 936.849,2454.06 934.849,2452.56 932.5,2451.5C 921.168,2446.64 909.834,2441.47 898.5,2436C 896.638,2434.24 894.638,2432.74 892.5,2431.5C 877.357,2424.17 862.357,2416.67 847.5,2409C 843.833,2407.67 840.166,2406.33 836.5,2405C 834.638,2403.24 832.638,2401.74 830.5,2400.5C 822.554,2397.43 814.888,2393.6 807.5,2389C 803.891,2387.53 800.224,2386.37 796.5,2385.5C 796.5,2384.5 796.5,2383.5 796.5,2382.5C 794.801,2382.66 793.134,2382.49 791.5,2382C 789.842,2380.17 787.842,2378.84 785.5,2378C 778.793,2376.28 772.96,2373.11 768,2368.5C 765.85,2362.21 763.183,2356.21 760,2350.5C 759.503,2348.19 759.337,2345.86 759.5,2343.5C 758.5,2343.5 757.5,2343.5 756.5,2343.5C 749.008,2324.09 740.675,2305.25 731.5,2287C 730.169,2279.95 727.336,2273.78 723,2268.5C 718.622,2255.73 713.622,2243.06 708,2230.5C 705.083,2226.33 702.416,2222 700,2217.5C 697.66,2208.2 693.993,2199.53 689,2191.5C 688.667,2189.5 688.333,2187.5 688,2185.5C 684.482,2179.29 681.149,2172.96 678,2166.5C 677.503,2164.19 677.337,2161.86 677.5,2159.5C 676.5,2159.5 675.5,2159.5 674.5,2159.5C 670.884,2151.12 667.551,2142.45 664.5,2133.5C 659.51,2122.78 654.343,2112.11 649,2101.5C 647.531,2098.34 646.531,2095.01 646,2091.5C 642.184,2084.52 638.517,2077.52 635,2070.5C 632.625,2064.71 630.625,2058.71 629,2052.5C 625.328,2045.62 621.661,2038.62 618,2031.5C 616.101,2028.12 615.268,2024.46 615.5,2020.5C 614.5,2020.5 613.5,2020.5 612.5,2020.5C 611.875,2015.69 610.041,2011.36 607,2007.5C 606.833,1951.33 606.667,1895.17 606.5,1839C 606.504,1782.29 607.171,1725.79 608.5,1669.5 Z"/></g>
<g><path style="opacity:0.964" fill="#fefefe" d="M 2606.5,1711.5 C 2610.95,1710.62 2614.45,1711.95 2617,1715.5C 2619.47,1721.25 2622.14,1726.92 2625,1732.5C 2625.49,1734.13 2625.66,1735.8 2625.5,1737.5C 2626.5,1737.5 2627.5,1737.5 2628.5,1737.5C 2631.97,1747.31 2636.47,1756.64 2642,1765.5C 2642.5,1767.47 2642.66,1769.47 2642.5,1771.5C 2643.5,1771.5 2644.5,1771.5 2645.5,1771.5C 2645.34,1773.2 2645.51,1774.87 2646,1776.5C 2649.42,1780.63 2652.09,1785.29 2654,1790.5C 2654.67,1798.17 2654.67,1805.83 2654,1813.5C 2652.21,1821.81 2650.55,1830.14 2649,1838.5C 2648.67,1843.17 2648.33,1847.83 2648,1852.5C 2647.59,1852.96 2647.09,1853.29 2646.5,1853.5C 2645.63,1868.39 2644.13,1883.06 2642,1897.5C 2641.09,1901.91 2639.93,1906.24 2638.5,1910.5C 2637.67,1917.48 2637.17,1924.48 2637,1931.5C 2636.58,1932.67 2635.91,1933.67 2635,1934.5C 2634.67,1941.17 2634.33,1947.83 2634,1954.5C 2633.33,1955.17 2632.67,1955.83 2632,1956.5C 2631.67,1962.83 2631.33,1969.17 2631,1975.5C 2628.91,1980.2 2627.91,1985.2 2628,1990.5C 2627.33,1991.17 2626.67,1991.83 2626,1992.5C 2625.76,2005.67 2624.76,2018.67 2623,2031.5C 2622.78,2033.38 2622.12,2035.05 2621,2036.5C 2620.18,2047.94 2618.84,2059.27 2617,2070.5C 2616.59,2070.96 2616.09,2071.29 2615.5,2071.5C 2614.67,2076.47 2614.17,2081.47 2614,2086.5C 2612.38,2091.78 2610.05,2096.78 2607,2101.5C 2607.05,2104.63 2606.05,2107.3 2604,2109.5C 2603.03,2114.63 2601.7,2119.63 2600,2124.5C 2598.23,2126.71 2596.73,2129.04 2595.5,2131.5C 2594.52,2134.09 2594.19,2136.75 2594.5,2139.5C 2593.5,2139.5 2592.5,2139.5 2591.5,2139.5C 2590.49,2147.04 2588.66,2154.37 2586,2161.5C 2579.29,2176.37 2573.46,2191.87 2568.5,2208C 2565.04,2212.77 2562.54,2217.94 2561,2223.5C 2559.87,2231.05 2557.37,2238.05 2553.5,2244.5C 2552.52,2247.09 2552.19,2249.75 2552.5,2252.5C 2551.5,2252.5 2550.5,2252.5 2549.5,2252.5C 2549.66,2255.19 2549.5,2257.85 2549,2260.5C 2547.21,2263.07 2545.55,2265.74 2544,2268.5C 2542.38,2275.57 2540.38,2282.57 2538,2289.5C 2534.86,2294.4 2532.86,2299.74 2532,2305.5C 2528.48,2312.52 2525.31,2319.85 2522.5,2327.5C 2521.69,2329.77 2521.19,2332.1 2521,2334.5C 2518.91,2337.04 2517.91,2340.04 2518,2343.5C 2516.21,2345.99 2514.71,2348.65 2513.5,2351.5C 2512.53,2353.4 2512.2,2355.4 2512.5,2357.5C 2511.5,2357.5 2510.5,2357.5 2509.5,2357.5C 2508.47,2365.06 2506.8,2372.39 2504.5,2379.5C 2503.5,2379.5 2502.5,2379.5 2501.5,2379.5C 2500.87,2385.28 2499.87,2390.94 2498.5,2396.5C 2497.5,2396.5 2496.5,2396.5 2495.5,2396.5C 2495.88,2401.2 2494.88,2405.54 2492.5,2409.5C 2490.47,2411.29 2488.31,2411.62 2486,2410.5C 2480.92,2403.35 2475.59,2396.35 2470,2389.5C 2469.51,2388.21 2469.34,2386.87 2469.5,2385.5C 2468.5,2385.5 2467.5,2385.5 2466.5,2385.5C 2465.66,2382.81 2464.16,2380.48 2462,2378.5C 2461.51,2377.21 2461.34,2375.87 2461.5,2374.5C 2460.5,2374.5 2459.5,2374.5 2458.5,2374.5C 2456.96,2371.77 2455.13,2369.1 2453,2366.5C 2452.51,2365.21 2452.34,2363.87 2452.5,2362.5C 2451.5,2362.5 2450.5,2362.5 2449.5,2362.5C 2447.43,2359.07 2445.76,2355.4 2444.5,2351.5C 2443.5,2351.5 2442.5,2351.5 2441.5,2351.5C 2440.67,2348.64 2439.33,2345.98 2437.5,2343.5C 2428.39,2331.91 2419.55,2320.24 2411,2308.5C 2409.55,2305.91 2408.39,2303.24 2407.5,2300.5C 2406.5,2300.5 2405.5,2300.5 2404.5,2300.5C 2401.97,2295.29 2398.97,2290.29 2395.5,2285.5C 2391.75,2281.66 2388.75,2277.33 2386.5,2272.5C 2384.14,2270.81 2382.14,2268.81 2380.5,2266.5C 2379.55,2264.95 2379.21,2263.29 2379.5,2261.5C 2378.5,2261.5 2377.5,2261.5 2376.5,2261.5C 2372.54,2254.7 2368.21,2248.03 2363.5,2241.5C 2358.92,2235.38 2354.09,2229.38 2349,2223.5C 2348.51,2221.87 2348.34,2220.2 2348.5,2218.5C 2347.5,2218.5 2346.5,2218.5 2345.5,2218.5C 2339.53,2209.27 2333.03,2200.27 2326,2191.5C 2325.51,2190.21 2325.34,2188.87 2325.5,2187.5C 2324.5,2187.5 2323.5,2187.5 2322.5,2187.5C 2317.94,2180.08 2313.11,2172.75 2308,2165.5C 2294.28,2147.13 2280.61,2128.79 2267,2110.5C 2265.55,2107.91 2264.39,2105.24 2263.5,2102.5C 2262.5,2102.5 2261.5,2102.5 2260.5,2102.5C 2257.58,2097.06 2254.41,2091.73 2251,2086.5C 2248.67,2084.17 2246.33,2081.83 2244,2079.5C 2243.51,2077.87 2243.34,2076.2 2243.5,2074.5C 2242.5,2074.5 2241.5,2074.5 2240.5,2074.5C 2236.94,2067.73 2232.6,2061.4 2227.5,2055.5C 2226.75,2054.26 2226.42,2052.93 2226.5,2051.5C 2225.5,2051.5 2224.5,2051.5 2223.5,2051.5C 2218.2,2042.3 2212.03,2033.64 2205,2025.5C 2203.71,2022.83 2202.54,2020.17 2201.5,2017.5C 2200.5,2017.5 2199.5,2017.5 2198.5,2017.5C 2198.5,2015.83 2198.5,2014.17 2198.5,2012.5C 2197.5,2012.5 2196.5,2012.5 2195.5,2012.5C 2191.82,2005.73 2187.32,1999.4 2182,1993.5C 2181.51,1992.21 2181.34,1990.87 2181.5,1989.5C 2180.5,1989.5 2179.5,1989.5 2178.5,1989.5C 2172.55,1980.22 2166.22,1971.22 2159.5,1962.5C 2158.48,1960.57 2158.31,1958.57 2159,1956.5C 2179.84,1944.99 2200.67,1933.49 2221.5,1922C 2224.72,1919.76 2228.39,1918.59 2232.5,1918.5C 2232.5,1917.5 2232.5,1916.5 2232.5,1915.5C 2258.57,1902.4 2284.24,1888.56 2309.5,1874C 2311.13,1873.51 2312.8,1873.34 2314.5,1873.5C 2314.5,1872.5 2314.5,1871.5 2314.5,1870.5C 2317.74,1868.43 2321.4,1867.1 2325.5,1866.5C 2331.44,1861.56 2338.11,1857.9 2345.5,1855.5C 2353.94,1850.04 2362.6,1844.88 2371.5,1840C 2373.13,1839.51 2374.8,1839.34 2376.5,1839.5C 2376.5,1838.5 2376.5,1837.5 2376.5,1836.5C 2378.2,1836.66 2379.87,1836.49 2381.5,1836C 2387.43,1831.09 2394.09,1827.43 2401.5,1825C 2405.48,1822.97 2409.14,1820.47 2412.5,1817.5C 2422.99,1811.65 2433.65,1806.31 2444.5,1801.5C 2453.12,1796.03 2461.79,1790.87 2470.5,1786C 2473.83,1784.67 2477.17,1783.33 2480.5,1782C 2486.52,1776.94 2493.19,1773.27 2500.5,1771C 2505.15,1766.83 2510.48,1763.83 2516.5,1762C 2535.4,1750.71 2554.74,1740.21 2574.5,1730.5C 2585.01,1723.93 2595.67,1717.59 2606.5,1711.5 Z"/></g>
<g><path style="opacity:0.982" fill="#fefefe" d="M 1791.5,1997.5 C 1888.5,1997.33 1985.5,1997.5 2082.5,1998C 2088.96,2008.59 2095.46,2019.09 2102,2029.5C 2102.49,2031.13 2102.66,2032.8 2102.5,2034.5C 2103.5,2034.5 2104.5,2034.5 2105.5,2034.5C 2105.34,2035.87 2105.51,2037.21 2106,2038.5C 2111.76,2046.57 2117.1,2054.91 2122,2063.5C 2122.49,2065.13 2122.66,2066.8 2122.5,2068.5C 2123.5,2068.5 2124.5,2068.5 2125.5,2068.5C 2125.21,2070.29 2125.55,2071.95 2126.5,2073.5C 2133.2,2085.58 2140.36,2097.25 2148,2108.5C 2149.61,2110.94 2150.44,2113.61 2150.5,2116.5C 2151.5,2116.5 2152.5,2116.5 2153.5,2116.5C 2154.98,2120 2155.98,2123.67 2156.5,2127.5C 2157.5,2127.5 2158.5,2127.5 2159.5,2127.5C 2161.41,2132.38 2163.91,2137.05 2167,2141.5C 2167.5,2143.47 2167.66,2145.47 2167.5,2147.5C 2168.5,2147.5 2169.5,2147.5 2170.5,2147.5C 2170.5,2148.5 2170.5,2149.5 2170.5,2150.5C 2171.5,2150.5 2172.5,2150.5 2173.5,2150.5C 2173.34,2151.87 2173.51,2153.21 2174,2154.5C 2206.86,2209.96 2239.53,2265.29 2272,2320.5C 2275.64,2326.45 2278.81,2332.79 2281.5,2339.5C 2288.16,2348.89 2294.33,2358.56 2300,2368.5C 2300.49,2370.13 2300.66,2371.8 2300.5,2373.5C 2301.5,2373.5 2302.5,2373.5 2303.5,2373.5C 2303.5,2375.5 2303.5,2377.5 2303.5,2379.5C 2304.5,2379.5 2305.5,2379.5 2306.5,2379.5C 2311.12,2389.68 2316.62,2399.35 2323,2408.5C 2323.49,2410.13 2323.66,2411.8 2323.5,2413.5C 2324.5,2413.5 2325.5,2413.5 2326.5,2413.5C 2328.32,2417.81 2330.15,2422.14 2332,2426.5C 2338.34,2436.5 2344.67,2446.5 2351,2456.5C 2351.49,2458.13 2351.66,2459.8 2351.5,2461.5C 2352.5,2461.5 2353.5,2461.5 2354.5,2461.5C 2358.27,2470.23 2362.77,2478.57 2368,2486.5C 2368.77,2489.1 2368.6,2491.6 2367.5,2494C 2364.82,2494.78 2362.48,2496.11 2360.5,2498C 2358.53,2498.5 2356.53,2498.66 2354.5,2498.5C 2354.5,2499.5 2354.5,2500.5 2354.5,2501.5C 2348.57,2503.1 2342.9,2505.6 2337.5,2509C 2335.53,2509.5 2333.53,2509.66 2331.5,2509.5C 2331.5,2510.5 2331.5,2511.5 2331.5,2512.5C 2329.71,2512.21 2328.05,2512.55 2326.5,2513.5C 2323.31,2517.01 2319.31,2518.68 2314.5,2518.5C 2314.5,2519.5 2314.5,2520.5 2314.5,2521.5C 2312.71,2521.21 2311.05,2521.55 2309.5,2522.5C 2303.32,2525.56 2297.32,2528.73 2291.5,2532C 2289.87,2532.49 2288.2,2532.66 2286.5,2532.5C 2286.5,2533.5 2286.5,2534.5 2286.5,2535.5C 2279.34,2538.41 2272.01,2541.24 2264.5,2544C 2261.54,2547.29 2257.88,2549.29 2253.5,2550C 2234.1,2559.23 2215.1,2569.23 2196.5,2580C 2192.7,2581.72 2188.7,2582.89 2184.5,2583.5C 2184.5,2584.5 2184.5,2585.5 2184.5,2586.5C 2180.67,2586.81 2177.34,2588.31 2174.5,2591C 2172.19,2591.5 2169.86,2591.66 2167.5,2591.5C 2167.5,2592.5 2167.5,2593.5 2167.5,2594.5C 2165.71,2594.21 2164.05,2594.55 2162.5,2595.5C 2160.49,2596.91 2158.49,2598.41 2156.5,2600C 2146.64,2603.78 2137.31,2608.45 2128.5,2614C 2126.53,2614.5 2124.53,2614.66 2122.5,2614.5C 2122.5,2615.5 2122.5,2616.5 2122.5,2617.5C 2118.46,2617.35 2115.13,2618.85 2112.5,2622C 2108.4,2623.22 2104.4,2624.72 2100.5,2626.5C 2096.92,2629.56 2092.92,2632.06 2088.5,2634C 2086.83,2634.33 2085.17,2634.67 2083.5,2635C 2076.57,2640.13 2068.9,2643.63 2060.5,2645.5C 2060.5,2646.5 2060.5,2647.5 2060.5,2648.5C 2058.4,2648.2 2056.4,2648.53 2054.5,2649.5C 2053.39,2650.89 2052.06,2652.06 2050.5,2653C 2046.3,2654.77 2041.97,2655.94 2037.5,2656.5C 2037.5,2657.5 2037.5,2658.5 2037.5,2659.5C 2036.13,2659.34 2034.79,2659.51 2033.5,2660C 2029.87,2663.46 2025.53,2665.3 2020.5,2665.5C 2020.5,2666.5 2020.5,2667.5 2020.5,2668.5C 2013.2,2671.48 2005.87,2674.48 1998.5,2677.5C 1994.41,2679.08 1990.74,2681.41 1987.5,2684.5C 1979.25,2687.29 1971.59,2691.12 1964.5,2696C 1947.83,2696.67 1931.17,2696.67 1914.5,2696C 1913.33,2695.58 1912.33,2694.91 1911.5,2694C 1899.83,2693.67 1888.17,2693.33 1876.5,2693C 1874.29,2692.83 1872.29,2692.16 1870.5,2691C 1861.01,2690.97 1851.67,2690.31 1842.5,2689C 1814.13,2688.09 1785.8,2686.76 1757.5,2685C 1755.62,2684.78 1753.95,2684.12 1752.5,2683C 1744.83,2682.67 1737.17,2682.33 1729.5,2682C 1728.69,2681.69 1728.03,2681.19 1727.5,2680.5C 1713.18,2679.67 1698.84,2679.17 1684.5,2679C 1683.33,2678.58 1682.33,2677.91 1681.5,2677C 1667.17,2676.67 1652.83,2676.33 1638.5,2676C 1637.69,2675.69 1637.03,2675.19 1636.5,2674.5C 1615.1,2673.96 1593.76,2672.79 1572.5,2671C 1570.62,2670.78 1568.95,2670.12 1567.5,2669C 1553.5,2668.67 1539.5,2668.33 1525.5,2668C 1523.96,2667.71 1522.62,2667.04 1521.5,2666C 1507.83,2665.67 1494.17,2665.33 1480.5,2665C 1478.96,2664.71 1477.62,2664.04 1476.5,2663C 1464.5,2662.67 1452.5,2662.33 1440.5,2662C 1430,2659.86 1419.33,2658.86 1408.5,2659C 1408.04,2658.59 1407.71,2658.09 1407.5,2657.5C 1398.94,2656.82 1390.44,2656.15 1382,2655.5C 1382.1,2649.87 1381.1,2644.54 1379,2639.5C 1378.67,2631.83 1378.33,2624.17 1378,2616.5C 1377.58,2615.33 1376.91,2614.33 1376,2613.5C 1375.67,2605.5 1375.33,2597.5 1375,2589.5C 1374.33,2588.83 1373.67,2588.17 1373,2587.5C 1371.19,2574.52 1369.52,2561.52 1368,2548.5C 1367.02,2531.69 1365.52,2515.02 1363.5,2498.5C 1362.91,2498.29 1362.41,2497.96 1362,2497.5C 1362.02,2491.61 1361.02,2485.94 1359,2480.5C 1358.67,2473.17 1358.33,2465.83 1358,2458.5C 1357.09,2457.67 1356.42,2456.67 1356,2455.5C 1355.67,2448.17 1355.33,2440.83 1355,2433.5C 1353.88,2432.05 1353.22,2430.38 1353,2428.5C 1351.23,2416.93 1350.23,2405.26 1350,2393.5C 1349.33,2392.83 1348.67,2392.17 1348,2391.5C 1346.15,2374.93 1344.82,2358.26 1344,2341.5C 1343.33,2340.83 1342.67,2340.17 1342,2339.5C 1341.83,2336 1341.67,2332.5 1341.5,2329C 1343.27,2320.47 1344.44,2311.63 1345,2302.5C 1345.67,2301.83 1346.33,2301.17 1347,2300.5C 1347.33,2295.83 1347.67,2291.17 1348,2286.5C 1348.67,2285.83 1349.33,2285.17 1350,2284.5C 1351.57,2271.69 1353.57,2259.03 1356,2246.5C 1356.42,2245.33 1357.09,2244.33 1358,2243.5C 1358.33,2239.17 1358.67,2234.83 1359,2230.5C 1361.05,2227.19 1362.05,2223.52 1362,2219.5C 1362.41,2219.04 1362.91,2218.71 1363.5,2218.5C 1364.33,2213.53 1364.83,2208.53 1365,2203.5C 1365.67,2202.83 1366.33,2202.17 1367,2201.5C 1367.83,2191.76 1369.16,2182.1 1371,2172.5C 1371.93,2168.76 1373.09,2165.09 1374.5,2161.5C 1375.8,2151.41 1377.3,2141.41 1379,2131.5C 1379.67,2130.83 1380.33,2130.17 1381,2129.5C 1381.33,2126.83 1381.67,2124.17 1382,2121.5C 1384.12,2119.54 1386.62,2119.04 1389.5,2120C 1405.16,2127.2 1421.16,2133.53 1437.5,2139C 1439.7,2141.05 1442.37,2142.05 1445.5,2142C 1447.71,2143.77 1450.04,2145.27 1452.5,2146.5C 1457.58,2147.9 1462.58,2149.4 1467.5,2151C 1474.29,2154.44 1481.29,2157.1 1488.5,2159C 1493.7,2161.18 1498.7,2163.85 1503.5,2167C 1515.91,2170.06 1527.58,2174.73 1538.5,2181C 1540.81,2181.5 1543.14,2181.66 1545.5,2181.5C 1545.5,2182.5 1545.5,2183.5 1545.5,2184.5C 1547.86,2184.34 1550.19,2184.5 1552.5,2185C 1562.81,2189.99 1573.31,2194.49 1584,2198.5C 1586.3,2199.91 1588.47,2199.74 1590.5,2198C 1655.78,2132.39 1721.11,2066.72 1786.5,2001C 1788.35,1999.97 1790.01,1998.8 1791.5,1997.5 Z"/></g>
</svg>
